<?xml version="1.0" encoding="utf-8"?>
<!-- Generator: Adobe Illustrator 19.1.0, SVG Export Plug-In . SVG Version: 6.00 Build 0)  -->
<svg version="1.1" id="Layer_1" xmlns="http://www.w3.org/2000/svg" xmlns:xlink="http://www.w3.org/1999/xlink" x="0px" y="0px"
	 viewBox="0 0 24 24" style="enable-background:new 0 0 24 24;" xml:space="preserve">
<style type="text/css">
	.st0{fill:#404040;}
</style>
<g>
	<path class="st0" d="M10.3,8c0.3,0.6,1,1,1.7,1s1.4-0.4,1.7-1H19c0.6,0,1-0.4,1-1c0-0.6-0.4-1-1-1h-5.3c-0.3-0.6-1-1-1.7-1
		s-1.4,0.4-1.7,1H3C2.4,6,2,6.4,2,7c0,0.6,0.4,1,1,1H10.3z"/>
	<path class="st0" d="M21,11h-7.3c-0.3-0.6-1-1-1.7-1s-1.4,0.4-1.7,1H8c-0.6,0-1,0.4-1,1c0,0.6,0.4,1,1,1h2.3c0.3,0.6,1,1,1.7,1
		s1.4-0.4,1.7-1H21c0.6,0,1-0.4,1-1C22,11.4,21.6,11,21,11z"/>
	<path class="st0" d="M16,16h-2.3c-0.3-0.6-1-1-1.7-1s-1.4,0.4-1.7,1H5c-0.6,0-1,0.4-1,1c0,0.6,0.4,1,1,1h5.3c0.3,0.6,1,1,1.7,1
		s1.4-0.4,1.7-1H16c0.6,0,1-0.4,1-1C17,16.4,16.6,16,16,16z"/>
</g>
</svg>
