<?xml version="1.0" encoding="utf-8"?>
<!-- Generator: Adobe Illustrator 19.1.0, SVG Export Plug-In . SVG Version: 6.00 Build 0)  -->
<svg version="1.1" id="Layer_1" xmlns="http://www.w3.org/2000/svg" xmlns:xlink="http://www.w3.org/1999/xlink" x="0px" y="0px"
	 viewBox="0 0 24 24" style="enable-background:new 0 0 24 24;" xml:space="preserve">
<style type="text/css">
	.st0{fill:#404040;}
</style>
<path class="st0" d="M22,6c0-1.7-2.7-0.7-3.5-0.5c-2.6,0.7-5,1.9-6.5,4.2c-1.5-2.4-3.8-3.5-6.5-4.2C4.7,5.3,2,4.3,2,6v12
	c0,1.7,2.5,0.8,3.3,0.6c2.7-0.7,5.2-1.8,6.7-4.3c1.5,2.4,4,3.6,6.7,4.3c0.8,0.2,3.3,1.1,3.3-0.6V6z M20,16.8c-0.6-0.1-1.3-0.3-2-0.5
	V7.7c0.7-0.2,1.4-0.4,2-0.5V16.8z M4,7.2c0.6,0.1,1.3,0.3,2,0.5v8.5c-0.7,0.2-1.4,0.4-2,0.5V7.2z M8.4,15.2
	c-0.1,0.1-0.3,0.2-0.4,0.3V8.6c1.4,0.7,2.3,2,2.9,3.4C10.7,12.6,9.9,14.2,8.4,15.2z M16,8.6v6.9c-1.4-0.7-2.3-2-2.9-3.4
	C13.3,11.4,14.6,9.3,16,8.6z"/>
</svg>
