<?xml version="1.0" encoding="utf-8"?>
<!-- Generator: Adobe Illustrator 19.1.0, SVG Export Plug-In . SVG Version: 6.00 Build 0)  -->
<svg version="1.1" id="Layer_1" xmlns="http://www.w3.org/2000/svg" xmlns:xlink="http://www.w3.org/1999/xlink" x="0px" y="0px"
	 viewBox="0 0 24 24" style="enable-background:new 0 0 24 24;" xml:space="preserve">
<style type="text/css">
	.st0{fill:#404040;}
</style>
<g>
	<path class="st0" d="M19,4h-1c-0.6,0-1,0.4-1,1s0.4,1,1,1h1c0.6,0,1,0.4,1,1v3c0,0.6-0.4,1-1,1H6H5c-1.7,0-3,1.3-3,3v3
		c0,1.7,1.3,3,3,3h7.6l-0.9,1c-0.4,0.4-0.4,1,0,1.4c0.2,0.2,0.5,0.3,0.7,0.3s0.5-0.1,0.7-0.3l2.7-2.7c0.4-0.4,0.4-1,0-1.4l-2.7-2.7
		c-0.4-0.4-1-0.4-1.4,0s-0.4,1,0,1.4l0.9,1H5c-0.6,0-1-0.4-1-1v-3c0-0.6,0.4-1,1-1h1h13c1.7,0,3-1.3,3-3V7C22,5.3,20.7,4,19,4z"/>
	<path class="st0" d="M3,6h4.6L6.7,6.9c-0.4,0.4-0.4,1,0,1.4c0.2,0.2,0.5,0.3,0.7,0.3s0.5-0.1,0.7-0.3l2.7-2.7c0.4-0.4,0.4-1,0-1.4
		L8.1,1.6c-0.4-0.4-1-0.4-1.4,0s-0.4,1,0,1.4L7.6,4H3C2.4,4,2,4.4,2,5S2.4,6,3,6z"/>
	<circle class="st0" cx="14" cy="5" r="1.5"/>
	<circle class="st0" cx="19" cy="19" r="1.5"/>
</g>
</svg>
